<?xml version="1.0" encoding="UTF-8"?>
<svg width="64px" height="64px" viewBox="0 0 64 64" version="1.1" xmlns="http://www.w3.org/2000/svg" xmlns:xlink="http://www.w3.org/1999/xlink">
    <!-- Generator: Sketch 48.2 (47327) - http://www.bohemiancoding.com/sketch -->
    <title>🎉 Logo</title>
    <desc>Created with Sketch.</desc>
    <defs></defs>
    <g id="01-Molecule/Navigation/Mobile/Main-Bar" stroke="none" stroke-width="1" fill="none" fill-rule="evenodd" transform="translate(-16.000000, -16.000000)">
        <g id="Assets/Logo/Mark/Primary" transform="translate(16.000000, 16.000000)">
            <g id="🎨-Logo-Color">
                <path d="M23.1778054,45.3613193 C23.0541339,46.7446277 22.6477847,48.1154978 21.3554175,48.8102615 C20.3289441,49.3602088 18.9703244,49.5147982 17.9217667,48.9879505 L17.9164665,48.9826198 C17.9164665,48.9826198 17.9164665,48.9826198 17.9111663,48.9826198 C15.6356108,47.5708812 14.9483506,46.5456161 14.2284058,44.9401966 C17.0848596,46.064033 20.2294973,46.212007 23.1778054,45.3613193 L23.1778054,45.3613193 Z" id="Shape"></path>
                <path d="M52.4208144,22.7974901 C52.1563906,22.7217191 51.9375995,22.5344023 51.8210076,22.2839691 C51.7731983,22.2057836 51.7111627,22.1373632 51.6381504,22.0822922 C51.9255436,22.2895939 52.1881713,22.529583 52.4208144,22.7974901 Z" id="Shape" fill="#FFFFFF" fill-rule="nonzero"></path>
                <path d="M51.5816149,22.0414237 C51.2344513,21.804209 50.1735266,21.3004609 49.5171843,21.0214893 C50.1152243,21.2622578 51.11343,21.6904881 51.5816149,22.0414237 Z" id="Shape" fill="#FFFFFF" fill-rule="nonzero"></path>
                <path d="M63.3436577,27.5826531 C63.3233402,24.0564162 62.2553485,20.6101394 60.5742995,17.3424399 C56.176011,8.80093287 47.9006211,2.51252152 38.4989372,0.625465045 C29.336646,-1.21450386 19.7132367,1.05724915 12.3538992,6.82947415 C4.2383989,13.1951802 -0.324195997,23.2603698 0.102470669,33.5716586 C0.101158788,33.5974066 0.101158788,33.6232053 0.102470669,33.6489533 C0.424016563,39.5215725 2.24905452,45.2449331 5.55903382,50.1180521 C7.20916494,52.5497251 9.13402346,54.7619524 11.4404969,56.349603 C17.1673706,61.2849131 24.3818357,63.9724582 32.0176674,63.9724582 C49.4730159,63.9724582 63.6749206,49.7306902 63.6749206,32.2212227 C63.6770662,30.6689789 63.56635,29.1186551 63.3436577,27.5826531 Z M32.0229676,54.6802154 C31.1274898,54.6814219 30.2327631,54.6280173 29.3437129,54.5202954 C30.4283668,53.4067633 31.315425,52.1146543 31.966432,50.6999833 C33.400138,47.5691043 33.2711663,44.331612 33.2711663,40.9883947 L33.2711663,39.5482259 C34.6181657,41.6641077 36.517344,43.3670563 38.7612974,44.4710978 C42.3954727,46.2479871 46.5729193,46.2861902 50.3767012,45.0876784 C46.1858018,51.1094842 39.3322257,54.6900037 32.0238509,54.6757732 L32.0229676,54.6802154 Z M33.289717,22.0307624 C33.2940343,21.925721 33.2845294,21.8205663 33.2614493,21.7180299 C33.0017391,19.1264368 30.9814769,16.9968349 28.270421,16.9968349 C26.7911005,17.0063511 25.3911228,17.6710344 24.4436715,18.8137043 C24.209579,18.7310789 23.8774327,18.6075851 23.3703796,18.4290077 C20.5443507,17.5834198 17.5268757,17.6420981 14.7354589,18.5969238 C14.9751461,18.2770837 15.2274948,17.9637589 15.4925052,17.6569493 C17.4960881,15.3554143 19.9447967,13.4884523 22.689303,12.169915 C28.3976259,9.42550947 35.3082126,9.33577656 41.0819048,11.9504692 C43.7824136,13.172844 46.2145776,14.9225905 48.2371843,17.0981176 C48.6726846,17.5654395 49.1099517,18.055861 49.5242512,18.561386 C48.6116814,18.2464702 47.6690874,18.0276296 46.711608,17.9083791 C44.0799839,17.5865261 41.4113505,18.0131296 39.0086404,19.1397635 C36.7048171,20.2058971 34.7260732,21.9614637 33.3100345,24.0857349 C33.3100345,23.9515798 33.3100345,23.8147593 33.3047343,23.6806041 C33.2914838,22.6251319 33.2870669,23.538453 33.2870669,22.1213838 C33.2918927,22.0914237 33.2927837,22.0609559 33.289717,22.0307624 L33.289717,22.0307624 Z M56.8659213,38.2706425 C53.4119531,42.0625243 47.8423188,44.4400022 42.7046515,43.3871953 C37.2613389,42.2721972 33.4027881,37.4941418 33.2764665,31.9538009 C33.2776962,31.939316 33.2776962,31.924752 33.2764665,31.9102671 L33.2764665,31.9538009 L33.2764665,32.0621911 L33.2764665,31.9511355 C33.2729732,31.9272762 33.2729732,31.9030309 33.2764665,31.8791715 L33.2764665,31.8196457 C33.2711663,31.5282359 33.2764665,31.2359376 33.2994341,30.9471931 L33.2994341,30.9214282 C33.577695,26.9047698 36.1262112,23.2319396 39.6746998,21.3910822 C42.6543645,19.8768055 46.1322814,19.7024913 49.2468737,20.9113221 L49.3731953,20.9601866 C49.3935128,20.9681826 49.4147136,20.9779555 49.4376812,20.9886168 C49.4611838,20.9996732 49.4853809,21.0091702 49.5101173,21.017047 C49.5150465,21.0170695 49.519783,21.018975 49.5233678,21.0223777 C50.1205245,21.2622578 51.1187302,21.6904881 51.5877985,22.0423122 C51.6081159,22.0556388 51.6266667,22.0707424 51.644334,22.0831806 C51.9314852,22.2890965 52.1941032,22.5275861 52.4269979,22.7939364 L52.4269979,22.7939364 L52.4888337,22.8481315 L52.5612698,22.912988 L52.6231056,22.9645177 C52.6348677,22.9742395 52.6460749,22.9846212 52.6566736,22.9956133 L52.6743409,23.0107169 C55.0187992,25.1323227 56.5249413,28.0188794 56.6821808,31.2403798 C56.777252,32.7695855 55.6301298,34.0905514 54.110697,34.2015659 L53.9923257,34.2015659 L53.9746584,34.2015659 C53.9207729,34.2015659 53.8668875,34.2015659 53.8121187,34.1962352 C53.4983885,34.1854598 53.1897055,34.1136535 52.9031332,33.9847854 C52.8589648,33.9670165 52.8147964,33.9456938 52.7768116,33.9252596 C52.7284208,33.902912 52.6812417,33.8780006 52.6354727,33.8506302 C52.2995004,33.6474668 52.0079995,33.3778656 51.7786059,33.0581376 C51.745038,33.0146038 51.71147,32.9692931 51.677902,32.9319785 C51.677902,32.9319785 51.6726018,32.9319785 51.6726018,32.9266478 C51.0445273,31.9324782 51.2397516,30.4718752 50.782167,29.3853073 C50.250905,28.1318813 49.3333615,27.08324 48.1647481,26.3939142 C45.7734714,24.9946138 42.6542995,25.3668721 40.6490545,27.2716975 C38.6438095,29.1765228 38.1208558,32.2914099 39.3849551,34.7621745 C40.70294,37.3511022 43.5288337,38.5158532 46.3087923,38.0494197 C46.5225673,38.0129935 47.2089441,37.756233 47.2654796,37.7331334 C47.8744536,37.4782996 48.4490516,37.1472607 48.9756798,36.7478483 C49.5940373,36.2805264 50.1929607,35.8212005 50.7591994,35.3050142 C52.249441,36.5230718 54.2599862,36.8153701 55.9401518,36.1570326 C55.9444323,36.1585937 55.9491219,36.1585937 55.9534023,36.1570326 L56.0099379,36.133933 C56.1203589,36.0903992 56.2290131,36.0450886 56.3341339,35.9891166 L56.4940235,35.9002721 C56.5479089,35.8718419 56.5991442,35.8434116 56.6512629,35.8114276 C56.754617,35.7492365 56.8544375,35.6852685 56.9551415,35.6150813 C57.3085891,35.3655889 57.6270964,35.0694557 57.9021118,34.7346327 C57.9436301,34.6857682 57.9816149,34.6369038 58.0204831,34.585374 C58.087619,34.4965295 58.1521049,34.407685 58.2139406,34.3090677 C58.2757764,34.2104503 58.334962,34.1180521 58.3906142,34.0176578 C58.5122703,33.8051583 58.6188346,33.5842732 58.70951,33.356655 C59.5257419,31.3301127 58.8155141,28.6896552 58.0505176,26.7457382 C57.9886818,26.5884835 57.924196,26.4312288 57.8552933,26.275751 C57.8111249,26.1753568 57.7669565,26.0722972 57.7183713,25.9710145 C57.643285,25.8110945 57.5690821,25.6565051 57.489579,25.5010273 C57.4480607,25.4184019 57.4074258,25.3411072 57.3632574,25.2611472 C57.2749206,25.0958965 57.1865839,24.9359765 57.0929469,24.7760564 C57.0726294,24.7396302 57.0487785,24.7040924 57.028461,24.6676662 C57.0081435,24.6312399 56.9842926,24.5957021 56.9613251,24.5592759 C56.9100897,24.4704315 56.8553209,24.3860292 56.8014355,24.3007385 C56.74755,24.2154478 56.6857143,24.1230496 56.6247619,24.0342051 C56.6017943,23.9977789 56.5761767,23.9595758 56.5496756,23.9231495 C56.49049,23.8343051 56.4286542,23.7454606 56.3668185,23.6566161 C56.346501,23.6281859 56.3253002,23.602421 56.3049827,23.5739908 C56.2278353,23.4679697 56.1480377,23.3622448 56.0655901,23.256816 C56.0505728,23.2337165 56.0320221,23.2132822 56.0143547,23.1892942 C55.9498689,23.1066689 55.885383,23.0267089 55.8191304,22.9467488 C55.7829124,22.9005497 55.7466943,22.8579044 55.7087095,22.8099284 C55.6442236,22.7326337 55.5797378,22.6597812 55.5152519,22.5878172 L55.5099517,22.5824865 C55.4816839,22.5487256 55.4534161,22.5158532 55.4216149,22.4820923 C55.3703796,22.4225665 55.3156108,22.3630407 55.2617253,22.3044034 L55.2467081,22.2892998 C55.1996049,22.234391 55.1497786,22.1819061 55.0974189,22.1320451 L55.0718012,22.1062802 C55.023216,22.0520851 54.9710973,21.9978899 54.9172119,21.9463602 C54.8783437,21.9046033 54.8377088,21.8664001 54.7988406,21.8299739 C54.7264044,21.7580099 54.6495514,21.6824921 54.5753485,21.6131934 C54.5311801,21.5696596 54.4870117,21.5243489 54.4410766,21.4896996 L54.418109,21.4666 C54.3509731,21.4044089 54.2838371,21.3448831 54.2149344,21.2889111 C54.170766,21.2471542 54.1265977,21.2062857 54.0788958,21.1698595 C54.0038095,21.1023377 53.9296066,21.041035 53.8527536,20.9788439 C53.8471759,20.9716661 53.8402783,20.9656337 53.8324362,20.961075 C53.5674258,20.1063912 52.8607315,19.1841857 52.4190476,18.5622744 C51.5988368,17.419291 50.704702,16.3318526 49.7424431,15.3070132 C47.9869769,13.454459 45.9523946,11.8914944 43.7134576,10.6755511 C38.8081159,8.01021711 33.0865424,7.14131823 27.6043616,8.15059137 C22.5338302,9.08256983 17.7901449,11.7310234 14.2902415,15.5246821 C13.3795477,16.5147835 12.548344,17.5759503 11.8044444,18.6982065 C11.4775983,19.1912932 11.1993375,19.7101449 10.8857419,20.2085624 C10.427274,20.9388639 9.83806763,21.3937476 9.24091097,21.9996668 C9.20204279,22.0414237 9.16140787,22.0822922 9.12518979,22.1231606 C9.02978606,22.2208896 8.93703244,22.3221722 8.84692892,22.4225665 C8.77714286,22.4971958 8.71089027,22.5727136 8.64640442,22.6500083 C7.94549791,23.4489395 7.34227681,24.3294422 6.84963423,25.272697 C6.7983989,25.3730912 6.74628019,25.4743739 6.69769496,25.5747682 C6.63585921,25.698262 6.57667357,25.8199789 6.52102139,25.946138 C6.51572119,25.9594647 6.50777088,25.9719029 6.50335404,25.9825643 C6.47243616,26.0500861 6.44151829,26.1167194 6.41501725,26.1869065 C6.40971705,26.2020101 6.40176674,26.2153368 6.3973499,26.2304403 L6.30901311,26.4472208 C6.26484472,26.5556111 6.22067633,26.6640013 6.18004141,26.7723916 C6.1747412,26.7874951 6.16679089,26.8034871 6.16237405,26.8185907 L6.06167012,27.0922317 C6.06167012,27.0975623 6.06167012,27.102893 6.05636991,27.1055583 C5.94329883,27.4129602 5.83729469,27.7221389 5.74984127,28.0375368 C5.51561419,28.8632714 5.36061067,29.7096825 5.28695652,30.5651619 L5.26398896,30.8521295 C5.25603865,30.9685157 5.2489717,31.0840135 5.2436715,31.2003998 C5.23837129,31.3167861 5.23307108,31.4349492 5.23042098,31.5557777 C5.22777088,31.6766061 5.22512077,31.7876617 5.22512077,31.904048 L5.22512077,32.1368205 L5.22512077,32.2505414 L5.22512077,32.369593 C5.22512077,32.4113499 5.22512077,32.4468877 5.23042098,32.4886446 C5.23042098,32.5659393 5.23837129,32.6432339 5.24102139,32.723194 C5.24234469,32.7430136 5.24234469,32.7629001 5.24102139,32.7827198 C5.25427191,32.9479705 5.26663906,33.1158865 5.28253968,33.2838025 C5.28148077,33.2905723 5.28148077,33.297467 5.28253968,33.3042368 C5.28253968,33.3477706 5.29048999,33.3930812 5.2957902,33.4357266 C5.29820899,33.4780504 5.30322429,33.5201837 5.31080745,33.5618857 C5.31080745,33.598312 5.31875776,33.6338497 5.32405797,33.670276 C5.32935818,33.7067022 5.33200828,33.7191404 5.33465839,33.7449053 C5.3479089,33.8452996 5.36027605,33.9492476 5.37617667,34.0523072 C5.39207729,34.1553668 5.40709455,34.2566495 5.4247619,34.3570437 C5.44772947,34.4805375 5.47069703,34.6075851 5.49719807,34.7337442 C5.51486542,34.8225887 5.53606625,34.9114332 5.55638371,35.0047199 C5.56698413,35.058915 5.57935128,35.1104448 5.59260179,35.1646399 C5.6005521,35.2010661 5.61026915,35.2392693 5.62086957,35.2756955 C5.64383713,35.3760897 5.6721049,35.4773724 5.69772257,35.5777667 C6.1249394,37.1525796 6.82563418,38.6390222 7.76745342,39.9684602 C8.26920635,40.6729968 9.21087647,42.1007274 10.1922981,42.7048698 C11.4687647,45.3382198 12.9174879,47.6170803 15.0128364,49.6409573 L15.4916218,50.0460881 C17.4094134,51.5431173 20.0604003,52.0006663 22.2167012,50.9674052 C25.011677,49.630296 25.5372809,46.4887556 25.5372809,43.6981509 C25.5372809,42.7457382 24.5717598,42.3450497 23.7943961,42.6942085 C21.6274948,43.6714976 19.0242098,43.858071 16.7186197,43.3418846 C15.6575561,43.1022646 14.6346111,42.7159698 13.678951,42.1940141 C13.0378623,41.8630457 12.4350035,41.4620081 11.8812974,40.9981676 C11.827412,40.9519685 11.7735266,40.9093231 11.7214079,40.8560164 C11.7214079,40.8560164 11.7214079,40.8560164 11.7161077,40.8560164 C11.6984403,40.8409129 11.6798896,40.8222555 11.6622222,40.807152 C11.6604896,40.806658 11.6586546,40.806658 11.656922,40.807152 C11.5615183,40.7183075 11.4661146,40.6339053 11.3742443,40.5468377 L11.3689441,40.541507 C11.2806073,40.4526626 11.1922705,40.3638181 11.1039337,40.2749736 L11.0730159,40.2438781 C11.0138302,40.1870176 10.9546446,40.1248265 10.8963423,40.0608585 C10.8168392,39.9808984 10.7417529,39.8956078 10.66755,39.8129824 C10.5182609,39.6477317 10.376922,39.4771503 10.24,39.3074574 C10.24,39.3074574 10.2346998,39.3021267 10.2346998,39.2994614 C10.0933609,39.1217724 9.95938348,38.9440835 9.83276743,38.7663946 C9.76033126,38.6660003 9.69142857,38.5620523 9.62164251,38.4589927 C9.56775707,38.3790327 9.51387164,38.2964074 9.46440304,38.213782 C9.41493444,38.1311566 9.34868185,38.0280971 9.28772947,37.932145 C9.22677709,37.836193 9.17730849,37.7464601 9.12518979,37.6505081 L9.12518979,37.6451774 C9.01741891,37.4541618 8.91406487,37.2604809 8.81866115,37.0641346 C8.76742581,36.961075 8.71530711,36.8553501 8.66937198,36.7496252 C8.5810352,36.5532789 8.49269841,36.3524904 8.41407867,36.1508135 C8.37786059,36.061969 8.34429262,35.9731245 8.31337474,35.8842801 C8.28245687,35.7954356 8.25153899,35.7190294 8.22503796,35.6337387 C7.53724214,33.6380457 7.39147664,31.4938968 7.80278813,29.422622 C7.833706,29.270698 7.86727398,29.1178855 7.90614217,28.9659615 C7.94501035,28.8140374 7.98122843,28.6665556 8.02451346,28.5217391 C8.02451346,28.5217391 8.02451346,28.5217391 8.02451346,28.5164085 C8.06603175,28.3662613 8.11285024,28.2143373 8.16320221,28.0668555 C8.21355418,27.9193736 8.26655625,27.7701149 8.32309179,27.6226331 C8.42379572,27.3560997 8.5368668,27.0895663 8.6605383,26.8328058 C8.70912353,26.7217502 8.76389234,26.61336 8.82307798,26.5049697 C8.88226363,26.3965795 8.94674948,26.2650897 9.01123533,26.1495919 L9.01123533,26.1495919 C9.07837129,26.0305403 9.14727398,25.9150425 9.21706004,25.794214 C9.3536876,25.5667722 9.49797101,25.344661 9.64991028,25.1278805 C9.69142857,25.07102 9.73206349,25.0114943 9.77358178,24.9546338 C9.77790748,24.9508922 9.78150228,24.9463729 9.78418219,24.9413071 C9.83011732,24.8764507 9.87958592,24.8124826 9.92552105,24.7476262 C9.96438923,24.6987617 10.0023741,24.6472319 10.0438923,24.597479 C10.0854106,24.5477261 10.1057281,24.517519 10.1419462,24.4784275 C10.6851942,23.8014235 11.3054224,23.1907507 11.9899517,22.6588928 C15.1532919,20.1863513 19.3484058,19.8398578 23.3712629,20.9424177 C23.6106556,21.0072741 23.8473982,21.0792382 24.0841408,21.1538675 C25.2607867,21.5279027 25.5637819,21.8717308 25.5690821,21.8326392 C25.6132505,21.0916764 25.8985783,20.5212949 26.3208282,20.1214948 C27.3163837,19.1744128 29.0645687,19.178855 30.1122429,20.1214948 C30.5989786,20.5550558 30.9328916,21.1956244 30.9691097,22.0343162 C30.9823602,23.4336165 31.0000276,24.8329169 31.0053278,26.2313288 C31.0132781,27.7487923 31.010628,29.2644789 30.9797101,30.7801655 L30.9797101,30.8139264 C30.9744099,31.1497585 30.9646929,31.4802599 30.9540925,31.8125382 L30.9540925,31.8276417 L30.9540925,31.9538009 L30.9540925,32.0426453 C30.9540925,36.4129047 31.0901311,40.8089289 30.9487923,45.1765228 C30.7791856,50.4396691 26.9824707,55.0196013 21.8836715,56.2172247 C19.2145003,56.8371419 16.4137959,56.4983213 13.9669289,55.2594814 C11.7355418,54.1133878 10.0112077,52.2289966 8.50506556,50.2539841 C4.86144974,45.4598667 2.74165441,39.6711669 2.42307798,33.6453995 C2.06266391,25.4184019 5.01222912,17.3335554 10.7391028,11.3987451 C16.4061146,5.55222805 24.1909306,2.27104817 32.3091787,2.3072908 C41.0218357,2.36148592 49.3343271,6.33194514 54.9375293,13.0094953 C57.897695,16.5383975 60.6334852,21.2960187 61.0168668,25.9603532 C61.3808144,30.4336721 59.8896894,34.9514132 56.8659213,38.2706425 Z M49.3352105,33.4588261 C48.8281573,33.9412516 48.5119117,34.2939641 47.8052174,34.8270309 C47.1868599,35.2916875 46.5879365,35.5333444 45.6471498,35.8132045 L45.6471498,35.8132045 C41.3133471,36.4999722 39.2153485,30.4256761 43.1198344,28.3298351 C44.8079503,27.4209562 46.9651346,27.8962741 48.1364803,29.4084069 C49.0595997,30.603365 48.8255072,32.1448165 49.3352105,33.4588261 Z M14.2284058,44.9384197 C17.0845659,46.0631348 20.2292083,46.2120456 23.1778054,45.3622078 C23.0541339,46.7455161 22.6477847,48.1163863 21.3554175,48.81115 C20.3289441,49.3610972 18.9703244,49.5156866 17.9217667,48.9888389 L17.9164665,48.9835082 C17.9164665,48.9835082 17.9164665,48.9835082 17.9111663,48.9835082 C15.6364941,47.5726581 14.949234,46.5438392 14.2284058,44.9384197 Z" id="Shape" fill="#1D2D58" fill-rule="nonzero"></path>
                <path d="M20.5913043,25.6867122 C17.3634783,24.9999445 14.046432,26.9776223 13.1657143,30.1813538 C12.262029,33.4748181 14.2363561,36.9939475 17.502167,37.9436948 C20.941118,38.9423066 24.430421,36.7887168 25.3517736,33.412627 C25.3517736,33.412627 25.3517736,33.412627 25.3517736,33.4072964 C25.369441,33.3397746 25.3879917,33.2731412 25.403009,33.2029541 C25.4180262,33.1327669 25.4259765,33.05103 25.4365769,32.9755122 C25.8879779,29.6776056 23.9834369,26.4063524 20.5913043,25.6867122 Z M23.1751553,32.5845966 C22.6451346,34.7968238 20.5807039,36.3071797 18.2927812,35.7465712 C16.1408972,35.2197235 14.8131953,32.9381976 15.3997516,30.8005997 C15.9430228,28.8184796 17.9615183,27.5613304 19.975597,27.9247043 C22.1327812,28.3147315 23.5329193,30.4487756 23.1751553,32.5837081 L23.1751553,32.5845966 Z" id="Shape" fill="#1D2D58" fill-rule="nonzero"></path>
                <path d="M57.897695,34.7337442 C57.6279659,35.0735537 57.3087005,35.3703917 56.9507246,35.6141929 C57.3041723,35.3647005 57.6226796,35.0685673 57.897695,34.7337442 L57.897695,34.7337442 Z" id="Shape" fill="#1D2D58" fill-rule="nonzero"></path>
            </g>
        </g>
    </g>
</svg>