<!--?xml version="1.0" encoding="utf-8"?-->
<!-- Generator: Adobe Illustrator 22.0.1, SVG Export Plug-In . SVG Version: 6.00 Build 0)  -->
<svg version="1.1" id="Layer_1" xmlns="http://www.w3.org/2000/svg" xmlns:xlink="http://www.w3.org/1999/xlink" x="0px" y="0px" viewBox="0 0 2000 2000" style="" xml:space="preserve">
<style type="text/css">
	.st0{display:none;}
	.st1{display:inline;fill:#1D2D58;}
	.st2{display:inline;}
	.st3{fill:#1D2D58;}
	.st4{fill:#FFFFFF;}
	.st5{fill:none;stroke:#1D2D58;stroke-width:110;stroke-linecap:round;stroke-miterlimit:10;}
	.st6{fill:none;stroke:#1D2D58;stroke-width:117;stroke-linecap:round;stroke-miterlimit:10;}
	.st7{fill:none;stroke:#FFFFFF;stroke-width:62;stroke-linecap:round;stroke-miterlimit:10;}
	.st8{fill:none;stroke:#1D2D58;stroke-width:26;stroke-linecap:round;stroke-miterlimit:10;}
	.st9{fill:none;stroke:#B64F59;stroke-width:30;stroke-linecap:round;stroke-miterlimit:10;}
</style>
<g class="st0">
	<path class="st1 BJIClkuA_0" d="M822.5,901.5c-50.7-10.7-102.9,20.2-116.7,70.3c-14.2,51.5,16.8,106.5,68.2,121.3
		c54.1,15.6,108.9-18.1,123.4-70.9c0,0,0,0,0-0.1c0.3-1,0.6-2.1,0.8-3.2c0.2-1.2,0.4-2.4,0.5-3.6
		C905.8,963.9,875.8,912.8,822.5,901.5z"></path>
	<path class="st1 BJIClkuA_1" d="M863.1,1009.4c-8.3,34.6-40.8,58.2-76.8,49.4c-33.8-8.2-54.7-43.9-45.5-77.3c8.5-31,40.3-50.6,72-45
		C846.7,942.6,868.8,976,863.1,1009.4z"></path>
</g>
<g id="XMLID_3_" class="st0">
	<g class="st2">
		<path class="st3 BJIClkuA_2" d="M1021.7,935.3c-0.1,3.3-0.1,6.6-0.3,9.8C1021.4,941.9,1021.5,938.6,1021.7,935.3z"></path>
		<path class="st3 BJIClkuA_3" d="M1254,972c-3.5-0.1-7-0.9-10.3-2.4C1247,970.9,1250.5,971.7,1254,972z"></path>
		<path class="st4 BJIClkuA_4" d="M1238.3,843.6c-2.8-0.8-5.3-2.7-6.8-5.8c-0.3-0.7-1-1.4-2.1-2.3C1232.3,837.7,1236,840.8,1238.3,843.6z"></path>
		<path class="st4 BJIClkuA_5" d="M1228.8,835.1c-3.9-2.7-15.9-8.3-23.4-11.5C1212.1,826.3,1223.5,831.1,1228.8,835.1z"></path>
		<path class="st3 BJIClkuA_6" d="M1021.5,946.2v0.5c0,0.4,0,0.8,0,1.2v-1.2C1021.5,946.5,1021.5,946.4,1021.5,946.2c0-0.1,0-0.2,0-0.3
			C1021.5,945.9,1021.5,946,1021.5,946.2z"></path>
		<path class="st3 BJIClkuA_7" d="M1361.9,897.4c-0.2-39.7-12.3-78.5-31.3-115.3c-49.8-96.1-143.5-166.9-249.9-188.2
			c-103.7-20.7-212.7,4.9-295.9,69.8c-91.9,71.6-143.5,184.9-138.7,301c0,0.3,0,0.6,0,0.9c3.6,66.1,24.3,130.5,61.8,185.4
			c18.7,27.4,40.5,52.3,66.6,70.1c64.8,55.6,146.5,85.8,232.9,85.8c197.6,0,358.4-160.3,358.4-357.4
			C1365.7,932.1,1364.4,914.7,1361.9,897.4z M1007.3,1202.4c-10.2,0-20.3-0.6-30.3-1.8c12.1-12.5,22.3-26.9,29.7-43
			c16.2-35.2,14.8-71.7,14.8-109.3v-16.1c15.1,23.4,36.2,42.8,62.1,55.4c41.1,20,88.4,20.4,131.5,6.9
			C1168,1161.8,1091,1202.4,1007.3,1202.4z M1021.7,835c0.1-1.3-0.1-2.4-0.3-3.5c-2.9-29.2-25.8-53.1-56.5-53.1
			c-17.2,0-32.8,8-43.3,20.5c-2.7-0.9-6.4-2.3-12.2-4.3c-32.4-9.8-66.7-8.6-97.8,1.9c2.7-3.6,5.6-7.1,8.6-10.6
			c22.7-25.9,50.3-46.9,81.5-61.8c64.6-30.9,142.9-31.9,208.2-2.5c30.6,13.8,58.1,33.4,81,57.9c4.9,5.3,9.9,10.8,14.6,16.5
			c-10.3-3.5-20.9-6-31.8-7.4c-29.9-3.7-60,1.3-87.2,13.9c-26.1,12-48.5,31.8-64.5,55.7c0-1.5,0-3.1-0.1-4.6
			c-0.1-11.9-0.2-1.6-0.2-17.5C1021.7,835.7,1021.7,835.3,1021.7,835z M1288.6,1017.8c-39.1,42.7-102.2,69.4-160.3,57.6
			c-61.6-12.6-105.3-66.3-106.7-128.7c0-0.2,0-0.3,0-0.5v0.5c0,0.4,0,0.8,0,1.2v-1.2c0-0.1,0-0.3,0-0.4c0-0.1,0-0.3,0-0.4v-0.7
			c-0.1-3.3,0-6.6,0.3-9.8V935c3.1-45.2,32-86.6,72.2-107.3c21.5-11.1,45.9-15.7,70-14c13.1,0.9,26.1,3.9,38.3,8.6
			c0.4,0.2,0.9,0.3,1.4,0.6c0.2,0.1,0.5,0.2,0.7,0.3c0.3,0.1,0.5,0.2,0.8,0.3c0.1,0,0.1,0,0.1,0.1c6.8,2.7,18.1,7.5,23.4,11.5
			c0.2,0.1,0.4,0.3,0.6,0.5c2.9,2.2,6.6,5.3,8.9,8h0c0.2,0.2,0.5,0.4,0.7,0.6c0.3,0.2,0.6,0.5,0.8,0.7c0.2,0.2,0.5,0.4,0.7,0.6
			c0.1,0.1,0.3,0.2,0.4,0.3c0.1,0.1,0.1,0.1,0.2,0.2c26.5,23.9,43.6,56.4,45.4,92.6c0.9,19-13.5,32.2-29.1,33.3c-0.4,0-0.9,0-1.3,0
			h-0.2c-0.6,0-1.2,0-1.8-0.1c-3.5-0.1-7-0.9-10.3-2.4c-0.5-0.2-1-0.4-1.4-0.7c-0.6-0.3-1.1-0.5-1.6-0.8c-3.5-2.1-6.8-5-9.7-8.9
			c-0.4-0.5-0.8-1-1.1-1.4c0,0-0.1,0-0.1-0.1c-7.1-11.2-4.9-27.6-10.1-39.9c-6-14-16.4-26-29.6-33.7c-27.1-15.7-62.4-11.6-85.1,9.9
			c-22.8,21.6-28.6,56.4-14.3,84.3c14.9,29.1,46.9,42.2,78.4,37c2.4-0.4,10.2-3.3,10.8-3.6c4.1-1.7,11.4-5.1,19.4-11.1
			c7-5.3,13.8-10.4,20.2-16.2c16.9,13.7,39.6,17,58.7,9.6c0.1,0,0.1,0,0.1,0c0.2-0.1,0.4-0.2,0.6-0.3c1.3-0.5,2.5-1,3.7-1.6
			c0.6-0.3,1.2-0.6,1.8-1c0.6-0.3,1.2-0.6,1.8-1c1.2-0.7,2.3-1.4,3.4-2.2c3.9-2.7,7.5-6,10.7-9.9c0.5-0.6,0.9-1.1,1.3-1.7
			c0.8-1,1.5-2,2.2-3.1c0.7-1,1.4-2.2,2-3.3c1.3-2.3,2.6-4.8,3.6-7.4c9.2-22.8,1.2-52.5-7.5-74.4c-0.7-1.8-1.4-3.5-2.2-5.3
			c-0.5-1.1-1-2.3-1.5-3.4c-0.8-1.8-1.7-3.5-2.6-5.3c-0.5-0.9-0.9-1.8-1.4-2.7c-1-1.9-2-3.7-3.1-5.5c-0.2-0.4-0.5-0.8-0.7-1.2
			c-0.3-0.4-0.5-0.8-0.8-1.2c-0.6-1-1.2-1.9-1.8-2.9c-0.7-1-1.3-2-2-3c-0.3-0.4-0.6-0.8-0.8-1.2c-0.7-1-1.4-2-2.1-3
			c-0.2-0.3-0.5-0.6-0.7-0.9c-0.9-1.2-1.8-2.4-2.7-3.6c-0.2-0.3-0.4-0.5-0.6-0.8c-0.7-0.9-1.5-1.8-2.2-2.7c-0.4-0.5-0.8-1-1.3-1.5
			c-0.7-0.9-1.5-1.7-2.2-2.5c0,0,0,0-0.1-0.1c-0.3-0.4-0.6-0.8-1-1.1c-0.6-0.7-1.2-1.3-1.8-2c-0.1-0.1-0.1-0.1-0.2-0.2
			c-0.5-0.6-1.1-1.2-1.7-1.8l-0.3-0.3c-0.6-0.6-1.1-1.2-1.7-1.8c-0.4-0.5-0.9-0.9-1.3-1.3c-0.8-0.8-1.7-1.7-2.5-2.4
			c-0.5-0.5-1-1-1.5-1.4l-0.3-0.3c-0.8-0.7-1.5-1.4-2.3-2c-0.5-0.5-1-0.9-1.5-1.3c-0.8-0.8-1.7-1.5-2.6-2.2
			c-0.1-0.1-0.1-0.1-0.2-0.2c-3-9.6-11-20-16-27c-9.2-12.7-19.5-25.2-30.3-36.6c-19.7-20.7-42.9-38.5-68.1-52.1
			c-55.5-30-120.3-39.8-182.4-28.4c-57.4,10.5-111.1,40.3-150.7,83c-10.3,11.1-19.8,23.1-28.1,35.7c-3.7,5.5-6.8,11.4-10.4,17
			c-5.2,8.2-11.9,13.3-18.6,20.2c-0.4,0.5-0.9,0.9-1.3,1.4c-1.1,1.1-2.1,2.2-3.1,3.4c-0.8,0.8-1.5,1.7-2.3,2.6
			c-7.8,8.9-14.7,18.7-20.3,29.5c-0.6,1.1-1.2,2.3-1.7,3.4c-0.7,1.4-1.4,2.8-2,4.2c-0.1,0.1-0.1,0.3-0.2,0.4c-0.3,0.8-0.7,1.5-1,2.3
			c-0.1,0.2-0.1,0.3-0.2,0.5c-0.3,0.8-0.7,1.6-1,2.4c-0.5,1.2-1,2.4-1.5,3.7c-0.1,0.2-0.1,0.3-0.2,0.5c-0.4,1-0.8,2.1-1.1,3.1
			c0,0.1,0,0.1-0.1,0.1c-1.3,3.5-2.5,6.9-3.5,10.5c-2.6,9.3-4.3,18.8-5.1,28.4c-0.1,1.1-0.2,2.2-0.3,3.2c-0.1,1.3-0.2,2.6-0.2,3.9
			c-0.1,1.3-0.1,2.6-0.1,4c-0.1,1.3-0.1,2.6-0.1,3.9c0,0.9,0,1.7,0,2.6c0,0.4,0,0.8,0,1.3s0,0.9,0,1.3c0,0.4,0,0.9,0.1,1.3
			c0,0.9,0.1,1.7,0.1,2.6c0,0.2,0,0.4,0,0.7c0.1,1.9,0.3,3.7,0.5,5.6c0,0.1,0,0.1,0,0.2c0,0.5,0.1,1,0.1,1.5c0,0.5,0.1,1,0.2,1.4
			c0,0.4,0.1,0.8,0.1,1.2c0,0.3,0.1,0.6,0.1,0.8c0.1,1.1,0.3,2.3,0.5,3.5c0.2,1.1,0.3,2.3,0.6,3.4c0.3,1.4,0.5,2.8,0.8,4.2
			c0.2,1,0.4,2,0.7,3.1c0.1,0.6,0.3,1.2,0.4,1.8c0.1,0.4,0.2,0.8,0.3,1.2c0.3,1.1,0.6,2.3,0.9,3.4c4.8,17.6,12.8,34.6,23.4,49.4
			c5.7,7.9,16.3,24,27.4,30.8c14.5,29.6,30.9,55.3,54.6,78.1l5.4,4.6c21.7,16.9,51.7,22,76.1,10.4c31.6-15.1,37.6-50.4,37.6-81.8
			c0-10.7-10.9-15.2-19.7-11.3c-24.5,11-54,13.1-80.1,7.3c-12.1-2.7-23.7-6.9-34.6-12.9c-6.1-3.3-12.9-7.1-20.3-13.4
			c-0.6-0.5-1.2-1-1.8-1.6c0,0,0,0-0.1,0c-0.2-0.2-0.4-0.4-0.6-0.6c0,0,0,0-0.1,0c-1.1-1-2.2-1.9-3.2-2.9c0,0,0,0-0.1-0.1
			c-1-1-2-2-3-3c-0.1-0.1-0.2-0.2-0.3-0.3c-0.7-0.6-1.3-1.3-2-2.1c-0.9-0.9-1.7-1.9-2.6-2.8c-1.7-1.9-3.3-3.8-4.8-5.7
			c0,0-0.1-0.1-0.1-0.1c-1.6-2-3.1-4-4.5-6c-0.8-1.1-1.6-2.3-2.4-3.5c-0.6-0.9-1.2-1.8-1.8-2.8c-0.7-1-1.3-2.1-2-3.2
			c-0.6-1-1.3-2.1-1.8-3.2c0,0,0-0.1,0-0.1c-1.2-2.2-2.4-4.3-3.5-6.5c-0.6-1.2-1.2-2.4-1.7-3.5c-1-2.2-2-4.5-2.9-6.7
			c-0.4-1-0.8-2-1.1-3c-0.3-0.9-0.7-1.9-1-2.8c-7.7-22.5-9.5-46.6-4.8-69.9c0.3-1.7,0.7-3.4,1.2-5.1c0.4-1.7,0.8-3.4,1.3-5
			c0,0,0,0,0-0.1c0.5-1.7,1-3.4,1.6-5.1c0.6-1.7,1.2-3.3,1.8-5c1.1-3,2.4-6,3.8-8.9c0.6-1.2,1.2-2.5,1.8-3.7c0.7-1.4,1.4-2.7,2.1-4
			c0,0,0,0,0,0c0.8-1.3,1.5-2.6,2.3-4c1.5-2.6,3.2-5.1,4.9-7.5c0.5-0.6,0.9-1.3,1.4-1.9c0.1-0.1,0.1-0.1,0.1-0.1
			c0.5-0.7,1.1-1.5,1.6-2.2c0.4-0.6,0.9-1.1,1.3-1.7c0.3-0.4,0.7-0.9,1.1-1.3c6.2-7.7,13.3-14.6,20.9-20.5
			c35.8-27.8,83.3-31.7,128.8-19.3c2.7,0.7,5.4,1.5,8.1,2.4c13.3,4.2,16.8,8.1,16.8,7.6c0.5-8.3,3.7-14.8,8.5-19.3
			c11.3-10.7,31.1-10.6,42.9,0c5.5,4.9,9.3,12.1,9.7,21.5c0.1,15.7,0.3,31.5,0.4,47.2c0.1,17.1,0.1,34.1-0.3,51.2v0.4
			c-0.1,3.8-0.2,7.5-0.3,11.2v0.2c0,0.5,0,1,0,1.4c0,0.3,0,0.7,0,1c0,49.2,1.5,98.7-0.1,147.8c-1.9,59.2-44.9,110.8-102.6,124.3
			c-29.9,7-62.3,3.2-89.6-10.8c-25.3-12.9-44.8-34.1-61.8-56.3c-41.4-53.9-65.1-119.3-68.8-186.9c-4.1-92.6,29.3-183.6,94.1-250.4
			C830.1,649.7,919,612.4,1010.6,613c98.6,0.6,192.7,45.3,256.2,120.5c33.5,39.7,64.5,93.3,68.8,145.8
			C1339.7,929.5,1322.8,980.4,1288.6,1017.8z M1203.3,963.6c-5.7,5.4-9.3,9.4-17.3,15.4c-7,5.2-13.8,7.9-24.4,11.1c0,0,0,0,0,0
			c-49.1,7.7-72.8-60.6-28.6-84.2c19.1-10.2,43.5-4.9,56.8,12.1C1200.2,931.4,1197.5,948.8,1203.3,963.6z M805.9,1092.8
			c32.2,12.4,67.6,14.6,101.3,4.8c-1.4,15.6-6,31-20.6,38.8c-11.6,6.2-27,7.9-38.9,2l-0.1-0.1c0,0,0,0-0.1,0
			C821.8,1122.4,814.1,1110.9,805.9,1092.8z"></path>
		<path class="st3 BJIClkuA_8" d="M877.9,876.1c-36.5-7.7-74.1,14.5-84.1,50.6c-10.2,37.1,12.1,76.7,49.1,87.4c38.9,11.2,78.4-13,88.9-51
			c0,0,0,0,0-0.1c0.2-0.8,0.4-1.5,0.6-2.3c0.1-0.8,0.3-1.7,0.4-2.6C937.9,921,916.3,884.2,877.9,876.1z M907.2,953.7
			c-6,24.9-29.4,41.9-55.3,35.6c-24.4-5.9-39.4-31.6-32.7-55.7c6.1-22.3,29-36.5,51.8-32.4C895.4,905.7,911.2,929.7,907.2,953.7z"></path>
		<path class="st3 BJIClkuA_9" d="M1291.1,865.9c-0.2-0.4-0.5-0.8-0.7-1.2c0.1,0.1,0.2,0.2,0.2,0.3C1290.8,865.3,1291,865.6,1291.1,865.9z"></path>
		<path class="st3 BJIClkuA_10" d="M1300.3,978c-3.1,3.9-6.8,7.2-10.7,9.9C1293.4,985.1,1297,981.8,1300.3,978z"></path>
		<path class="st3 BJIClkuA_11" d="M932.8,958.1c0,0.8-0.1,1.7-0.4,2.6C932.6,959.9,932.7,959,932.8,958.1z"></path>
	</g>
</g>
<g>
	<path class="st5 BJIClkuA_12" d="M1306.3,982.8c1.9,116.9-58,228.5-159,285c-106.7,59.6-237.7,48.4-338-24"></path>
	<path class="st6 BJIClkuA_13" d="M955.8,888.3c-0.1,19.7,0.2,71.6-0.5,109.5c-1,54-44.1,99-100,101c-49.3,1.7-101.2-36.6-103-95
		c-2-64,44-108,99-108c60,0,102.9,51,104,99c1,44,3,126.2-1,168c-4,42-46,87-102,85c-53.2-1.9-81.9-46.2-99-67
		c-70.5-85.9-76.1-219-29-315c76-155,232-172,280-172c24.4,0,147,15,215,94c19.6,22.7,103.3,108.7,73,194c-11,31-49,84-110,111
		c-49,21.7-107.9-7.6-131-60c-22-50,2.6-112,60-133c60-22,127,16,136,94"></path>
	<path class="st7 BJIClkuA_14" d="M955.8,888.3c-0.1,19.7,0.2,71.6-0.5,109.5c-1,54-44.1,99-100,101c-49.3,1.7-101.2-36.6-103-95
		c-2-64,44-108,99-108c60,0,102.9,51,104,99c1,44,3,126.2-1,168c-4,42-46,87-102,85c-53.2-1.9-81.9-46.2-99-67
		c-70.5-85.9-76.1-219-29-315c76-155,232-172,280-172c24.4,0,147,15,215,94c19.6,22.7,103.3,108.7,73,194c-11,31-49,84-110,111
		c-49,21.7-107.9-7.6-131-60c-22-50,2.6-112,60-133c60-22,127,16,136,94"></path>
</g>
<path class="st8 BJIClkuA_15" d="M1228,874c25,17,60,57.2,56,105c-2,24-13,40-30,44c-20.8,4.9-43-3-52-31"></path>
<path class="st9 BJIClkuA_16" d="M1500,1000"></path>
<path class="st9 BJIClkuA_17" d="M1333.1,1373c-196.3,175.8-498.2,169.4-686.8-19.2c-195.3-195.3-195.3-511.8,0-707.1s511.8-195.3,707.1,0
	c182.7,182.7,194.5,471.8,35.1,668.1"></path>
<path class="st8 BJIClkuA_18" d="M766,1116c-3.2-2.1-62.5-46.6-59-126c3.3-74.5,64.1-115,69-118"></path>
<style>.BJIClkuA_0{stroke-dasharray:621 623;stroke-dashoffset:622;animation:BJIClkuA_draw_0 4050ms linear 0ms infinite,BJIClkuA_fade 4050ms linear 0ms infinite;}.BJIClkuA_1{stroke-dasharray:393 395;stroke-dashoffset:394;animation:BJIClkuA_draw_1 4050ms linear 0ms infinite,BJIClkuA_fade 4050ms linear 0ms infinite;}.BJIClkuA_2{stroke-dasharray:20 22;stroke-dashoffset:21;animation:BJIClkuA_draw_2 4050ms linear 0ms infinite,BJIClkuA_fade 4050ms linear 0ms infinite;}.BJIClkuA_3{stroke-dasharray:22 24;stroke-dashoffset:23;animation:BJIClkuA_draw_3 4050ms linear 0ms infinite,BJIClkuA_fade 4050ms linear 0ms infinite;}.BJIClkuA_4{stroke-dasharray:25 27;stroke-dashoffset:26;animation:BJIClkuA_draw_4 4050ms linear 0ms infinite,BJIClkuA_fade 4050ms linear 0ms infinite;}.BJIClkuA_5{stroke-dasharray:53 55;stroke-dashoffset:54;animation:BJIClkuA_draw_5 4050ms linear 0ms infinite,BJIClkuA_fade 4050ms linear 0ms infinite;}.BJIClkuA_6{stroke-dasharray:4 6;stroke-dashoffset:5;animation:BJIClkuA_draw_6 4050ms linear 0ms infinite,BJIClkuA_fade 4050ms linear 0ms infinite;}.BJIClkuA_7{stroke-dasharray:9746 9748;stroke-dashoffset:9747;animation:BJIClkuA_draw_7 4050ms linear 0ms infinite,BJIClkuA_fade 4050ms linear 0ms infinite;}.BJIClkuA_8{stroke-dasharray:730 732;stroke-dashoffset:731;animation:BJIClkuA_draw_8 4050ms linear 0ms infinite,BJIClkuA_fade 4050ms linear 0ms infinite;}.BJIClkuA_9{stroke-dasharray:3 5;stroke-dashoffset:4;animation:BJIClkuA_draw_9 4050ms linear 0ms infinite,BJIClkuA_fade 4050ms linear 0ms infinite;}.BJIClkuA_10{stroke-dasharray:30 32;stroke-dashoffset:31;animation:BJIClkuA_draw_10 4050ms linear 0ms infinite,BJIClkuA_fade 4050ms linear 0ms infinite;}.BJIClkuA_11{stroke-dasharray:6 8;stroke-dashoffset:7;animation:BJIClkuA_draw_11 4050ms linear 0ms infinite,BJIClkuA_fade 4050ms linear 0ms infinite;}.BJIClkuA_12{stroke-dasharray:701 703;stroke-dashoffset:702;animation:BJIClkuA_draw_12 4050ms linear 0ms infinite,BJIClkuA_fade 4050ms linear 0ms infinite;}.BJIClkuA_13{stroke-dasharray:2995 2997;stroke-dashoffset:2996;animation:BJIClkuA_draw_13 4050ms linear 0ms infinite,BJIClkuA_fade 4050ms linear 0ms infinite;}.BJIClkuA_14{stroke-dasharray:2995 2997;stroke-dashoffset:2996;animation:BJIClkuA_draw_14 4050ms linear 0ms infinite,BJIClkuA_fade 4050ms linear 0ms infinite;}.BJIClkuA_15{stroke-dasharray:249 251;stroke-dashoffset:250;animation:BJIClkuA_draw_15 4050ms linear 0ms infinite,BJIClkuA_fade 4050ms linear 0ms infinite;}.BJIClkuA_16{stroke-dasharray:0 2;stroke-dashoffset:1;animation:BJIClkuA_draw_16 4050ms linear 0ms infinite,BJIClkuA_fade 4050ms linear 0ms infinite;}.BJIClkuA_17{stroke-dasharray:3062 3064;stroke-dashoffset:3063;animation:BJIClkuA_draw_17 4050ms linear 0ms infinite,BJIClkuA_fade 4050ms linear 0ms infinite;}.BJIClkuA_18{stroke-dasharray:287 289;stroke-dashoffset:288;animation:BJIClkuA_draw_18 4050ms linear 0ms infinite,BJIClkuA_fade 4050ms linear 0ms infinite;}@keyframes BJIClkuA_draw{100%{stroke-dashoffset:0;}}@keyframes BJIClkuA_fade{0%{stroke-opacity:1;}98.76543209876543%{stroke-opacity:1;}100%{stroke-opacity:0;}}@keyframes BJIClkuA_draw_0{4.938271604938271%{stroke-dashoffset: 622}54.32098765432099%{ stroke-dashoffset: 0;}100%{ stroke-dashoffset: 0;}}@keyframes BJIClkuA_draw_1{6.310013717421124%{stroke-dashoffset: 394}55.692729766803836%{ stroke-dashoffset: 0;}100%{ stroke-dashoffset: 0;}}@keyframes BJIClkuA_draw_2{7.681755829903977%{stroke-dashoffset: 21}57.06447187928671%{ stroke-dashoffset: 0;}100%{ stroke-dashoffset: 0;}}@keyframes BJIClkuA_draw_3{9.053497942386832%{stroke-dashoffset: 23}58.43621399176955%{ stroke-dashoffset: 0;}100%{ stroke-dashoffset: 0;}}@keyframes BJIClkuA_draw_4{10.425240054869684%{stroke-dashoffset: 26}59.807956104252405%{ stroke-dashoffset: 0;}100%{ stroke-dashoffset: 0;}}@keyframes BJIClkuA_draw_5{11.796982167352537%{stroke-dashoffset: 54}61.179698216735254%{ stroke-dashoffset: 0;}100%{ stroke-dashoffset: 0;}}@keyframes BJIClkuA_draw_6{13.168724279835391%{stroke-dashoffset: 5}62.55144032921811%{ stroke-dashoffset: 0;}100%{ stroke-dashoffset: 0;}}@keyframes BJIClkuA_draw_7{14.540466392318244%{stroke-dashoffset: 9747}63.92318244170095%{ stroke-dashoffset: 0;}100%{ stroke-dashoffset: 0;}}@keyframes BJIClkuA_draw_8{15.912208504801098%{stroke-dashoffset: 731}65.29492455418381%{ stroke-dashoffset: 0;}100%{ stroke-dashoffset: 0;}}@keyframes BJIClkuA_draw_9{17.28395061728395%{stroke-dashoffset: 4}66.66666666666666%{ stroke-dashoffset: 0;}100%{ stroke-dashoffset: 0;}}@keyframes BJIClkuA_draw_10{18.655692729766805%{stroke-dashoffset: 31}68.03840877914952%{ stroke-dashoffset: 0;}100%{ stroke-dashoffset: 0;}}@keyframes BJIClkuA_draw_11{20.027434842249654%{stroke-dashoffset: 7}69.41015089163238%{ stroke-dashoffset: 0;}100%{ stroke-dashoffset: 0;}}@keyframes BJIClkuA_draw_12{21.399176954732514%{stroke-dashoffset: 702}70.78189300411523%{ stroke-dashoffset: 0;}100%{ stroke-dashoffset: 0;}}@keyframes BJIClkuA_draw_13{22.770919067215363%{stroke-dashoffset: 2996}72.15363511659808%{ stroke-dashoffset: 0;}100%{ stroke-dashoffset: 0;}}@keyframes BJIClkuA_draw_14{24.14266117969822%{stroke-dashoffset: 2996}73.52537722908093%{ stroke-dashoffset: 0;}100%{ stroke-dashoffset: 0;}}@keyframes BJIClkuA_draw_15{25.514403292181075%{stroke-dashoffset: 250}74.8971193415638%{ stroke-dashoffset: 0;}100%{ stroke-dashoffset: 0;}}@keyframes BJIClkuA_draw_16{26.886145404663925%{stroke-dashoffset: 1}76.26886145404663%{ stroke-dashoffset: 0;}100%{ stroke-dashoffset: 0;}}@keyframes BJIClkuA_draw_17{28.257887517146774%{stroke-dashoffset: 3063}77.64060356652949%{ stroke-dashoffset: 0;}100%{ stroke-dashoffset: 0;}}@keyframes BJIClkuA_draw_18{29.629629629629626%{stroke-dashoffset: 288}79.01234567901234%{ stroke-dashoffset: 0;}100%{ stroke-dashoffset: 0;}}</style></svg>
