<svg id="Layer_1" data-name="Layer 1" xmlns="http://www.w3.org/2000/svg" viewBox="0 0 1605.3 720"><defs><style>.cls-1{fill:#1d2d58;}.cls-2{fill:none;}.cls-3{fill:#fff;}</style></defs><title>Logo - Inline</title><path class="cls-1" d="M1038.37,938.54c34,0,45.33,22.66,45.33,22.66h.58a83.23,83.23,0,0,1-.58-9.88v-36.9c0-4.36-2.32-6.39-6.39-6.39h-11.91V883.92h27.89c13.08,0,18.6,5.52,18.6,18.6v156c0,4.36,2.32,6.39,6.39,6.39h11.91v24.12h-27c-12.79,0-18-5.81-18-15.69,0-4.36.29-7.55.29-7.55h-.58s-12.2,26.73-48.23,26.73c-39.81,0-64.79-31.38-64.79-77C971.83,968.76,999.44,938.54,1038.37,938.54Zm46.2,76.71c0-26.15-13.66-52.3-41.84-52.3-23,0-42.13,19.18-42.13,52.59,0,32,17.14,52.59,41.55,52.59C1063.94,1068.13,1084.57,1052.73,1084.57,1015.25Z" transform="translate(-193.72 -640)"/><path class="cls-1" d="M1163,972.54c0-4.36-2.32-6.39-6.39-6.39h-11.91V942h27.6c13.08,0,18.6,5.52,18.6,18.6v97.92c0,4.36,2.32,6.39,6.39,6.39h11.91v24.12h-27.6c-13.08,0-18.6-5.52-18.6-18.6Zm.58-88.62h25.28v29.35h-25.28Z" transform="translate(-193.72 -640)"/><path class="cls-1" d="M1292,938.54c36.61,0,47.07,23,47.07,23h.58v-4.65c0-8.72,4.65-14.82,16.27-14.82h27.31v24.12h-11.62c-3.78,0-6.39,2-6.39,5.81v111c0,48.52-36.9,67.12-74.09,67.12-17.72,0-35.74-4.94-50.27-12.2l9.59-22.66s18,9.88,40.1,9.88c25.57,0,46.49-11.33,46.49-41v-9.88a85.91,85.91,0,0,1,.58-9.3h-.58c-8.72,14.24-22.37,22.37-43.87,22.37-40.68,0-65.67-32.83-65.67-75.25C1227.51,969.92,1251,938.54,1292,938.54Zm45.91,73.8c0-38.35-18.89-49.4-41.55-49.4-25.57,0-40.1,18.6-40.1,48.52,0,30.51,16,51.43,42.42,51.43C1319,1062.9,1337.93,1050.7,1337.93,1012.35Z" transform="translate(-193.72 -640)"/><path class="cls-1" d="M1415.79,972.54c0-4.36-2.32-6.39-6.39-6.39h-11.91V942h27.6c13.08,0,18.6,5.52,18.6,18.6v97.92c0,4.36,2.32,6.39,6.39,6.39H1462v24.12h-27.6c-13.08,0-18.6-5.52-18.6-18.6Zm.58-88.62h25.28v29.35h-25.28Z" transform="translate(-193.72 -640)"/><path class="cls-1" d="M1495.4,964.69h-19.18V942H1496V901.64h27.6V942h35.16v22.66h-35.16v67.41c0,29.35,20.34,33.12,31.09,33.12a33.93,33.93,0,0,0,6.68-.58v25a71.8,71.8,0,0,1-9.88.58c-18.6,0-56.08-5.81-56.08-54.92Z" transform="translate(-193.72 -640)"/><path class="cls-1" d="M1669.73,997.53h6.39v-1.45c0-25.86-9.59-35.16-32.54-35.16-7,0-24.12,1.74-24.12,11.33v8.43H1593V966.15c0-24.12,36.61-27.6,50.85-27.6,47.65,0,60.44,25,60.44,57.53v62.47c0,4.36,2.32,6.39,6.39,6.39h11.91v24.12h-26.44c-13.08,0-18.3-6.39-18.3-16.85a63.66,63.66,0,0,1,.58-8.72h-.58s-11.62,29.06-46.78,29.06c-25.28,0-50-15.4-50-44.75C1581.11,1000.43,1645,997.53,1669.73,997.53Zm-32.54,72.35c23.83,0,39.23-25,39.23-46.78v-4.94h-7.26c-21.21,0-59.56,1.16-59.56,28.18C1609.58,1058.25,1618.59,1069.88,1637.18,1069.88Z" transform="translate(-193.72 -640)"/><path class="cls-1" d="M1752.53,914.43c0-4.36-2.32-6.39-6.39-6.39h-11.91V883.92h27.89c13.08,0,18.6,5.52,18.6,18.6v156c0,4.36,2.32,6.39,6.39,6.39H1799v24.12h-27.89c-13.08,0-18.6-5.52-18.6-18.6Z" transform="translate(-193.72 -640)"/><g id="_Group_" data-name="&lt;Group&gt;"><path class="cls-1" d="M569.74,988.33c-.06,3.28-.15,6.57-.26,9.82C569.42,994.87,569.51,991.58,569.74,988.33Z" transform="translate(-193.72 -640)"/><path class="cls-1" d="M802,1025a27.51,27.51,0,0,1-10.29-2.38A32.53,32.53,0,0,0,802,1025Z" transform="translate(-193.72 -640)"/><path class="cls-2" d="M455.21,1150.57c-1.4,15.57-6,31-20.63,38.82-11.62,6.19-27,7.93-38.87,2l-.06-.06s0,0-.06,0c-25.76-15.89-33.54-27.43-41.69-45.5A158.28,158.28,0,0,0,455.21,1150.57Z" transform="translate(-193.72 -640)"/><path class="cls-3" d="M786.25,896.6a10.75,10.75,0,0,1-6.79-5.78,8.22,8.22,0,0,0-2.07-2.27A52,52,0,0,1,786.25,896.6Z" transform="translate(-193.72 -640)"/><path class="cls-3" d="M776.75,888.09c-3.93-2.67-15.94-8.34-23.37-11.48C760.15,879.31,771.45,884.14,776.75,888.09Z" transform="translate(-193.72 -640)"/><path class="cls-1" d="M569.51,999.17v.49c0,.41,0,.84,0,1.22v-1.25a2.78,2.78,0,0,1,0-.81A1.44,1.44,0,0,1,569.51,999.17Z" transform="translate(-193.72 -640)"/><path class="cls-1" d="M909.9,950.44c-.23-39.69-12.32-78.48-31.35-115.26C828.76,739,735.09,668.26,628.65,647,524.93,626.33,416,651.9,332.72,716.87,240.86,788.52,189.2,901.8,194,1017.82a8.5,8.5,0,0,0,0,.87c3.64,66.1,24.3,130.52,61.77,185.37,18.68,27.37,40.47,52.27,66.58,70.14,64.83,55.55,146.5,85.8,232.94,85.8,197.6,0,358.37-160.3,358.37-357.38A358.39,358.39,0,0,0,909.9,950.44Zm-354.56,305a250.77,250.77,0,0,1-30.33-1.8,153.69,153.69,0,0,0,29.69-43c16.23-35.24,14.77-71.68,14.77-109.31v-16.12a154.32,154.32,0,0,0,62.15,55.41c41.14,20,88.43,20.43,131.49,6.94A253,253,0,0,1,555.35,1255.4ZM569.65,888a13.43,13.43,0,0,0-.32-3.52c-2.94-29.17-25.81-53.14-56.5-53.14a56.88,56.88,0,0,0-43.32,20.45c-2.65-.93-6.41-2.32-12.15-4.33a161,161,0,0,0-97.75,1.89q4.07-5.4,8.57-10.58A253.53,253.53,0,0,1,449.64,777c64.62-30.89,142.85-31.9,208.21-2.47a253.11,253.11,0,0,1,81,57.94c4.93,5.26,9.88,10.78,14.57,16.47a157.9,157.9,0,0,0-31.84-7.35,160.51,160.51,0,0,0-87.2,13.86c-26.08,12-48.48,31.76-64.51,55.67,0-1.51,0-3.05-.06-4.56-.15-11.88-.2-1.6-.2-17.55A3.9,3.9,0,0,0,569.65,888Zm266.92,182.79c-39.1,42.68-102.15,69.44-160.31,57.59C614.64,1115.79,571,1062,569.54,999.66a2.88,2.88,0,0,0,0-.49v.49c0,.41,0,.84,0,1.22v-1.25a2.78,2.78,0,0,1,0-.81v-.67c-.06-3.28,0-6.57.26-9.82V988c3.15-45.21,32-86.55,72.17-107.27a133.61,133.61,0,0,1,108.36-5.4l1.43.55c.23.09.47.2.73.32a6.73,6.73,0,0,0,.82.32.22.22,0,0,1,.15.06c6.76,2.7,18.06,7.52,23.37,11.48.23.15.44.32.64.46a52,52,0,0,1,8.86,8h0l.7.61.82.73.7.58a4.58,4.58,0,0,1,.38.35l.2.17c26.54,23.88,43.59,56.37,45.37,92.63A31.45,31.45,0,0,1,805.34,1025c-.44,0-.9,0-1.34,0h-.2c-.61,0-1.22,0-1.84-.06a27.51,27.51,0,0,1-10.29-2.38c-.5-.2-1-.44-1.43-.67a17.06,17.06,0,0,1-1.6-.84,32.81,32.81,0,0,1-9.7-8.92c-.38-.49-.76-1-1.14-1.42,0,0-.06,0-.06-.06-7.11-11.19-4.9-27.63-10.08-39.86A71.57,71.57,0,0,0,738,937.13C711,921.38,675.65,925.57,653,947s-28.58,56.4-14.31,84.26c14.92,29.14,46.91,42.25,78.38,37,2.42-.41,10.19-3.3,10.83-3.56a88.83,88.83,0,0,0,19.36-11.09c7-5.26,13.78-10.43,20.19-16.24,16.87,13.71,39.63,17,58.65,9.59a.22.22,0,0,0,.15,0l.64-.26c1.25-.49,2.48-1,3.67-1.63l1.81-1c.61-.32,1.19-.64,1.78-1,1.17-.7,2.3-1.42,3.44-2.21a54.56,54.56,0,0,0,10.72-9.91c.47-.55.9-1.1,1.34-1.68.76-1,1.49-2,2.19-3.11s1.37-2.15,2-3.28a58.55,58.55,0,0,0,3.61-7.44c9.24-22.81,1.2-52.53-7.46-74.41-.7-1.77-1.43-3.54-2.21-5.29-.5-1.13-1-2.29-1.55-3.43-.85-1.8-1.69-3.54-2.59-5.29-.47-.93-.93-1.8-1.43-2.7-1-1.86-2-3.66-3.06-5.46-.23-.41-.5-.81-.73-1.22s-.5-.81-.76-1.22c-.58-1-1.2-1.95-1.81-2.91s-1.31-2-2-3c-.26-.41-.55-.84-.85-1.25-.67-1-1.37-2-2.07-3-.23-.32-.47-.61-.7-.93q-1.31-1.79-2.71-3.57c-.17-.26-.38-.49-.58-.76-.73-.93-1.46-1.83-2.21-2.73-.41-.52-.82-1-1.25-1.54-.73-.87-1.46-1.69-2.19-2.5l-.06-.06c-.32-.38-.64-.75-1-1.13-.58-.67-1.2-1.34-1.81-2l-.17-.17a24.28,24.28,0,0,0-1.69-1.77l-.29-.29c-.55-.61-1.14-1.22-1.75-1.8-.44-.47-.9-.9-1.34-1.31-.82-.81-1.69-1.66-2.53-2.44-.5-.49-1-1-1.52-1.39l-.26-.26c-.76-.7-1.52-1.37-2.3-2-.5-.47-1-.93-1.54-1.34-.85-.76-1.69-1.45-2.56-2.15a.8.8,0,0,0-.23-.2c-3-9.62-11-20-16-27a361.51,361.51,0,0,0-30.3-36.64,274.36,274.36,0,0,0-68.15-52.12c-55.53-30-120.3-39.78-182.36-28.42-57.4,10.49-111.1,40.3-150.72,83a287.2,287.2,0,0,0-28.15,35.74c-3.7,5.55-6.85,11.39-10.4,17-5.19,8.22-11.86,13.34-18.62,20.16-.44.47-.9.93-1.31,1.39-1.08,1.1-2.13,2.24-3.15,3.37-.79.84-1.54,1.69-2.27,2.56a150.16,150.16,0,0,0-20.34,29.52c-.58,1.13-1.17,2.27-1.72,3.4-.7,1.39-1.37,2.76-2,4.18-.06.15-.15.29-.2.41-.35.76-.7,1.51-1,2.3-.06.17-.15.32-.2.49l-1,2.44c-.5,1.22-1,2.44-1.46,3.66-.06.17-.15.35-.2.52L261.37,945c0,.06,0,.12-.06.15-1.28,3.46-2.48,6.94-3.47,10.49A151.27,151.27,0,0,0,252.71,984l-.26,3.23c-.09,1.31-.17,2.61-.23,3.92s-.12,2.64-.15,4S252,997.74,252,999c0,.87,0,1.74,0,2.62,0,.41,0,.84,0,1.28s0,.87,0,1.34,0,.87.06,1.34c0,.87.09,1.74.12,2.64a5,5,0,0,1,0,.67c.15,1.86.29,3.75.47,5.64a.74.74,0,0,0,0,.23c0,.49.09,1,.15,1.48a11.59,11.59,0,0,0,.17,1.42c0,.41.09.81.15,1.22s.09.55.12.84c.15,1.13.29,2.3.47,3.46s.35,2.3.55,3.43c.26,1.39.52,2.82.82,4.24.2,1,.44,2,.67,3.05.12.61.26,1.19.41,1.8.09.41.2.84.32,1.25.26,1.13.58,2.27.87,3.4a155.87,155.87,0,0,0,23.43,49.42c5.68,7.93,16.34,24,27.45,30.8,14.45,29.64,30.85,55.29,54.57,78.07l5.42,4.56c21.71,16.85,51.72,22,76.13,10.37,31.64-15.05,37.59-50.41,37.59-81.82,0-10.72-10.93-15.23-19.73-11.3-24.53,11-54,13.1-80.1,7.29a133.3,133.3,0,0,1-34.58-12.87,111,111,0,0,1-20.34-13.42c-.61-.52-1.22-1-1.81-1.6,0,0,0,0-.06,0-.2-.17-.41-.38-.61-.55a.11.11,0,0,0-.06,0c-1.08-1-2.16-1.95-3.2-2.93l-.06-.06c-1-1-2-2-3-3l-.35-.35c-.67-.64-1.34-1.34-2-2.06-.9-.9-1.75-1.86-2.59-2.79-1.69-1.86-3.29-3.78-4.84-5.69,0,0-.06-.06-.06-.09q-2.4-3-4.55-6c-.82-1.13-1.6-2.3-2.39-3.46-.61-.9-1.22-1.83-1.78-2.76s-1.31-2.09-2-3.17-1.25-2.09-1.84-3.17c0,0,0-.06,0-.06-1.22-2.15-2.39-4.33-3.47-6.54-.58-1.16-1.17-2.35-1.69-3.54-1-2.21-2-4.47-2.89-6.74-.41-1-.79-2-1.14-3s-.7-1.86-1-2.82a133.58,133.58,0,0,1-4.78-69.91c.35-1.71.73-3.43,1.17-5.14s.85-3.37,1.34-5c0,0,0,0,0-.06.47-1.69,1-3.4,1.57-5.06s1.17-3.34,1.81-5c1.14-3,2.42-6,3.82-8.89.55-1.25,1.17-2.47,1.84-3.69s1.4-2.7,2.13-4v0c.76-1.34,1.54-2.64,2.33-4q2.32-3.84,4.9-7.5c.47-.64.93-1.31,1.4-1.95a.52.52,0,0,0,.12-.15c.52-.73,1.08-1.45,1.6-2.18.44-.55.87-1.13,1.34-1.69s.7-.9,1.11-1.34A125.39,125.39,0,0,1,328.58,895c35.81-27.83,83.3-31.73,128.84-19.32,2.71.73,5.39,1.54,8.07,2.38,13.32,4.21,16.75,8.08,16.81,7.64.5-8.34,3.73-14.76,8.51-19.26,11.27-10.66,31.06-10.61,42.92,0,5.51,4.88,9.29,12.09,9.7,21.53.15,15.75.35,31.5.41,47.24.09,17.08.06,34.14-.29,51.2v.38c-.06,3.78-.17,7.5-.29,11.24v.17c0,.47,0,1,0,1.42s0,.7,0,1c0,49.19,1.54,98.67-.06,147.83-1.92,59.24-44.9,110.79-102.62,124.27A132.84,132.84,0,0,1,351,1262c-25.26-12.9-44.78-34.11-61.83-56.34a337.32,337.32,0,0,1-68.85-186.94c-4.08-92.6,29.31-183.6,94.14-250.4A338.91,338.91,0,0,1,558.58,666c98.63.61,192.73,45.3,256.16,120.46,33.51,39.72,64.48,93.27,68.82,145.77C887.7,982.55,870.8,1033.39,836.57,1070.76Zm-85.25-54.16C745.58,1022,742,1026,734,1032c-7,5.23-13.78,7.95-24.43,11.1h0c-49.06,7.73-72.81-60.64-28.61-84.23C700,948.64,724.45,954,737.71,971,748.2,984.43,745.55,1001.81,751.32,1016.6ZM353.9,1145.81a158.28,158.28,0,0,0,101.31,4.77c-1.4,15.57-6,31-20.63,38.82-11.62,6.19-27,7.93-38.87,2l-.06-.06s0,0-.06,0C369.84,1175.41,362.06,1163.88,353.9,1145.81Z" transform="translate(-193.72 -640)"/><path class="cls-1" d="M425.93,929.11c-36.54-7.73-74.09,14.53-84.06,50.59-10.23,37.07,12.12,76.68,49.09,87.37,38.93,11.24,78.43-13,88.86-51,0,0,0,0,0-.06.2-.76.41-1.51.58-2.3s.26-1.71.38-2.56C485.89,974,464.33,937.22,425.93,929.11Zm29.25,77.64c-6,24.9-29.37,41.9-55.27,35.59-24.36-5.93-39.39-31.61-32.75-55.67,6.15-22.31,29-36.46,51.8-32.37C443.38,958.69,459.23,982.72,455.18,1006.75Z" transform="translate(-193.72 -640)"/><path class="cls-1" d="M839.1,918.86c-.23-.41-.5-.81-.73-1.22a2.47,2.47,0,0,1,.23.35C838.78,918.28,839,918.57,839.1,918.86Z" transform="translate(-193.72 -640)"/><path class="cls-1" d="M848.25,1031a48.55,48.55,0,0,1-10.72,9.91A54.56,54.56,0,0,0,848.25,1031Z" transform="translate(-193.72 -640)"/><path class="cls-1" d="M480.82,1011.14a11.42,11.42,0,0,1-.38,2.56C480.59,1012.85,480.7,1012,480.82,1011.14Z" transform="translate(-193.72 -640)"/></g></svg>
